<?xml version="1.0" encoding="utf-8"?>
<!DOCTYPE svg PUBLIC "-//W3C//DTD SVG 1.1//EN" "http://www.w3.org/Graphics/SVG/1.1/DTD/svg11.dtd">
<svg version="1.1" id="Layer_1" xmlns="http://www.w3.org/2000/svg" xmlns:xlink="http://www.w3.org/1999/xlink" x="0px" y="0px"
	 width="187px" height="46px" viewBox="1614.864 1000.901 187 46" enable-background="new 1614.864 1000.901 187 46"
	 xml:space="preserve">
<g>
	<path class="cls-1" d="M1658.816,1010.25h-4.066v-1.605h9.844v1.605h-4.066v11.021h-1.712V1010.25z"/>
	<path class="cls-1" d="M1663.596,1017.044c0-0.618,0.116-1.195,0.348-1.73s0.55-1.005,0.954-1.409c0.404-0.404,0.88-0.722,1.427-0.954
		c0.547-0.231,1.135-0.348,1.766-0.348c0.63,0,1.218,0.116,1.766,0.348c0.546,0.232,1.022,0.55,1.427,0.954
		c0.404,0.404,0.722,0.874,0.954,1.409s0.348,1.112,0.348,1.73s-0.116,1.198-0.348,1.739s-0.55,1.011-0.954,1.409
		c-0.404,0.398-0.88,0.713-1.427,0.945c-0.547,0.231-1.136,0.348-1.766,0.348c-0.63,0-1.219-0.116-1.766-0.348
		c-0.547-0.232-1.023-0.547-1.427-0.945c-0.404-0.398-0.722-0.868-0.954-1.409S1663.596,1017.663,1663.596,1017.044z
		 M1665.308,1017.044c0,0.428,0.065,0.823,0.196,1.186c0.13,0.363,0.315,0.672,0.553,0.927c0.238,0.256,0.529,0.458,0.874,0.606
		c0.345,0.148,0.731,0.223,1.159,0.223c0.428,0,0.814-0.074,1.159-0.223c0.345-0.148,0.636-0.351,0.874-0.606
		c0.237-0.255,0.422-0.564,0.553-0.927c0.13-0.363,0.196-0.758,0.196-1.186c0-0.428-0.066-0.823-0.196-1.186
		c-0.131-0.363-0.315-0.672-0.553-0.927c-0.238-0.256-0.529-0.458-0.874-0.606c-0.345-0.148-0.731-0.223-1.159-0.223
		c-0.428,0-0.814,0.075-1.159,0.223c-0.345,0.148-0.636,0.351-0.874,0.606c-0.238,0.255-0.422,0.564-0.553,0.927
		C1665.373,1016.221,1665.308,1016.616,1665.308,1017.044z"/>
	<path class="cls-1" d="M1674.707,1007.789h1.605v13.482h-1.605V1007.789z"/>
	<path class="cls-1" d="M1677.828,1012.817h1.854l2.533,6.474l2.425-6.474h1.712l-3.317,8.454h-1.766L1677.828,1012.817z"/>
	<path class="cls-1" d="M1687.494,1009.786c0-0.321,0.116-0.597,0.348-0.829c0.231-0.232,0.508-0.348,0.829-0.348c0.321,0,0.598,0.116,0.829,0.348
		c0.232,0.232,0.348,0.508,0.348,0.829c0,0.321-0.116,0.598-0.348,0.83c-0.231,0.231-0.508,0.348-0.829,0.348
		c-0.321,0-0.598-0.116-0.829-0.348C1687.61,1010.383,1687.494,1010.107,1687.494,1009.786z M1687.868,1012.817h1.605v8.454h-1.605
		V1012.817z"/>
	<path class="cls-1" d="M1700.477,1021.2c0,0.642-0.11,1.228-0.33,1.757c-0.22,0.528-0.532,0.986-0.936,1.373c-0.405,0.386-0.892,0.687-1.462,0.9
		c-0.571,0.214-1.201,0.321-1.891,0.321c-0.809,0-1.549-0.113-2.22-0.339c-0.672-0.226-1.311-0.618-1.917-1.177l1.088-1.355
		c0.416,0.451,0.868,0.793,1.355,1.025c0.487,0.231,1.041,0.348,1.659,0.348c0.594,0,1.088-0.087,1.48-0.259
		c0.393-0.173,0.705-0.396,0.937-0.669s0.395-0.586,0.49-0.936c0.095-0.352,0.143-0.705,0.143-1.062v-1.249h-0.054
		c-0.309,0.511-0.729,0.889-1.257,1.132c-0.529,0.244-1.085,0.366-1.667,0.366c-0.618,0-1.192-0.11-1.721-0.33
		c-0.529-0.22-0.984-0.523-1.364-0.91s-0.678-0.844-0.892-1.374c-0.214-0.529-0.321-1.103-0.321-1.721s0.101-1.198,0.303-1.739
		c0.202-0.541,0.49-1.014,0.865-1.418s0.826-0.719,1.355-0.945c0.529-0.226,1.121-0.339,1.774-0.339
		c0.571,0,1.126,0.125,1.667,0.375s0.966,0.601,1.275,1.052h0.036v-1.213h1.605V1021.2z M1696.09,1014.102
		c-0.428,0-0.814,0.075-1.159,0.223c-0.345,0.148-0.636,0.351-0.874,0.606c-0.238,0.255-0.422,0.564-0.553,0.927
		c-0.131,0.363-0.196,0.758-0.196,1.186c0,0.856,0.25,1.542,0.749,2.06s1.177,0.776,2.033,0.776s1.534-0.259,2.033-0.776
		c0.499-0.517,0.749-1.204,0.749-2.06c0-0.428-0.066-0.823-0.196-1.186c-0.131-0.363-0.315-0.672-0.553-0.927
		c-0.238-0.256-0.529-0.458-0.874-0.606C1696.904,1014.176,1696.518,1014.102,1696.09,1014.102z"/>
	<path class="cls-1" d="M1702.884,1012.817h1.605v1.302h0.036c0.202-0.452,0.553-0.817,1.052-1.097c0.5-0.279,1.076-0.419,1.73-0.419
		c0.404,0,0.793,0.063,1.168,0.188c0.375,0.125,0.702,0.318,0.981,0.58s0.502,0.597,0.669,1.007c0.166,0.41,0.25,0.895,0.25,1.454
		v5.439h-1.605v-4.994c0-0.392-0.054-0.728-0.161-1.007s-0.25-0.505-0.428-0.678c-0.178-0.172-0.383-0.297-0.615-0.375
		c-0.231-0.077-0.473-0.116-0.722-0.116c-0.333,0-0.642,0.054-0.927,0.161c-0.286,0.107-0.535,0.276-0.749,0.508
		c-0.214,0.232-0.381,0.526-0.5,0.883c-0.119,0.356-0.178,0.779-0.178,1.266v4.352h-1.605V1012.817z"/>
	<path class="cls-1" d="M1713.995,1017.633c0,0.369,0.081,0.705,0.241,1.008c0.161,0.303,0.372,0.562,0.633,0.775
		c0.261,0.214,0.564,0.381,0.91,0.5c0.345,0.119,0.701,0.178,1.07,0.178c0.5,0,0.933-0.116,1.302-0.348
		c0.368-0.232,0.707-0.538,1.016-0.918l1.213,0.927c-0.892,1.154-2.14,1.73-3.745,1.73c-0.666,0-1.27-0.113-1.81-0.339
		c-0.542-0.226-0.999-0.538-1.374-0.936s-0.663-0.868-0.865-1.409c-0.202-0.541-0.303-1.126-0.303-1.756s0.11-1.216,0.33-1.757
		c0.22-0.541,0.523-1.01,0.909-1.409s0.847-0.71,1.382-0.937c0.535-0.226,1.118-0.339,1.748-0.339c0.749,0,1.382,0.131,1.899,0.393
		c0.518,0.262,0.942,0.604,1.275,1.025c0.333,0.422,0.573,0.898,0.722,1.427c0.148,0.529,0.223,1.067,0.223,1.614v0.571H1713.995z
		 M1719.06,1016.349c-0.012-0.356-0.068-0.684-0.169-0.981c-0.101-0.297-0.252-0.556-0.455-0.775
		c-0.202-0.22-0.455-0.393-0.758-0.518c-0.303-0.125-0.657-0.187-1.062-0.187c-0.392,0-0.752,0.074-1.079,0.223
		c-0.327,0.149-0.604,0.342-0.83,0.58c-0.226,0.238-0.401,0.502-0.526,0.794c-0.125,0.292-0.188,0.58-0.188,0.865H1719.06z"/>
	<path class="cls-1" d="M1727.21,1014.208h-2.301v3.834c0,0.238,0.006,0.473,0.018,0.705c0.012,0.232,0.056,0.44,0.134,0.624
		c0.077,0.185,0.196,0.333,0.356,0.446c0.161,0.113,0.395,0.169,0.705,0.169c0.19,0,0.386-0.018,0.588-0.053
		s0.386-0.101,0.553-0.196v1.462c-0.19,0.107-0.437,0.181-0.74,0.223s-0.538,0.063-0.705,0.063c-0.618,0-1.097-0.086-1.436-0.259
		c-0.339-0.172-0.589-0.395-0.749-0.668c-0.161-0.273-0.256-0.58-0.286-0.918s-0.044-0.681-0.044-1.025v-4.405h-1.855v-1.391h1.855
		v-2.372h1.605v2.372h2.301V1014.208z"/>
	<path class="cls-1" d="M1733.791,1014.208h-2.301v3.834c0,0.238,0.006,0.473,0.018,0.705c0.012,0.232,0.056,0.44,0.134,0.624
		c0.077,0.185,0.196,0.333,0.356,0.446c0.161,0.113,0.395,0.169,0.705,0.169c0.19,0,0.386-0.018,0.588-0.053
		s0.386-0.101,0.553-0.196v1.462c-0.19,0.107-0.437,0.181-0.74,0.223s-0.538,0.063-0.705,0.063c-0.618,0-1.097-0.086-1.436-0.259
		c-0.339-0.172-0.589-0.395-0.749-0.668c-0.161-0.273-0.256-0.58-0.286-0.918s-0.044-0.681-0.044-1.025v-4.405h-1.855v-1.391h1.855
		v-2.372h1.605v2.372h2.301V1014.208z"/>
	<path class="cls-1" d="M1737.054,1017.633c0,0.369,0.081,0.705,0.241,1.008c0.161,0.303,0.372,0.562,0.633,0.775
		c0.261,0.214,0.564,0.381,0.91,0.5c0.345,0.119,0.701,0.178,1.07,0.178c0.5,0,0.933-0.116,1.302-0.348
		c0.368-0.232,0.707-0.538,1.016-0.918l1.213,0.927c-0.892,1.154-2.14,1.73-3.745,1.73c-0.666,0-1.27-0.113-1.81-0.339
		c-0.542-0.226-0.999-0.538-1.374-0.936s-0.663-0.868-0.865-1.409c-0.202-0.541-0.303-1.126-0.303-1.756s0.11-1.216,0.33-1.757
		c0.22-0.541,0.523-1.01,0.909-1.409s0.847-0.71,1.382-0.937c0.535-0.226,1.118-0.339,1.748-0.339c0.749,0,1.382,0.131,1.899,0.393
		c0.518,0.262,0.942,0.604,1.275,1.025c0.333,0.422,0.573,0.898,0.722,1.427c0.148,0.529,0.223,1.067,0.223,1.614v0.571H1737.054z
		 M1742.119,1016.349c-0.012-0.356-0.068-0.684-0.169-0.981c-0.101-0.297-0.252-0.556-0.455-0.775
		c-0.202-0.22-0.455-0.393-0.758-0.518c-0.303-0.125-0.657-0.187-1.062-0.187c-0.392,0-0.752,0.074-1.079,0.223
		c-0.327,0.149-0.604,0.342-0.83,0.58c-0.226,0.238-0.401,0.502-0.526,0.794c-0.125,0.292-0.188,0.58-0.188,0.865H1742.119z"/>
	<path class="cls-1" d="M1745.74,1012.817h1.605v1.302h0.036c0.202-0.452,0.553-0.817,1.052-1.097c0.5-0.279,1.076-0.419,1.73-0.419
		c0.404,0,0.793,0.063,1.168,0.188c0.375,0.125,0.702,0.318,0.981,0.58s0.502,0.597,0.669,1.007c0.166,0.41,0.25,0.895,0.25,1.454
		v5.439h-1.605v-4.994c0-0.392-0.054-0.728-0.161-1.007s-0.25-0.505-0.428-0.678c-0.178-0.172-0.383-0.297-0.615-0.375
		c-0.231-0.077-0.473-0.116-0.722-0.116c-0.333,0-0.642,0.054-0.927,0.161c-0.286,0.107-0.535,0.276-0.749,0.508
		c-0.214,0.232-0.381,0.526-0.5,0.883c-0.119,0.356-0.178,0.779-0.178,1.266v4.352h-1.605V1012.817z"/>
	<path class="cls-1" d="M1756.904,1021.378c-0.321,0-0.598-0.116-0.829-0.349c-0.232-0.231-0.348-0.508-0.348-0.829
		c0-0.321,0.116-0.598,0.348-0.83c0.231-0.232,0.508-0.348,0.829-0.348c0.321,0,0.597,0.116,0.829,0.348s0.348,0.508,0.348,0.83
		c0,0.321-0.116,0.597-0.348,0.829C1757.501,1021.262,1757.225,1021.378,1756.904,1021.378z"/>
	<path class="cls-1" d="M1760.578,1012.817h1.605v1.302h0.036c0.202-0.452,0.553-0.817,1.052-1.097c0.5-0.279,1.076-0.419,1.73-0.419
		c0.404,0,0.793,0.063,1.168,0.188c0.375,0.125,0.702,0.318,0.981,0.58s0.502,0.597,0.669,1.007c0.166,0.41,0.25,0.895,0.25,1.454
		v5.439h-1.605v-4.994c0-0.392-0.054-0.728-0.161-1.007s-0.25-0.505-0.428-0.678c-0.178-0.172-0.383-0.297-0.615-0.375
		c-0.231-0.077-0.473-0.116-0.722-0.116c-0.333,0-0.642,0.054-0.927,0.161c-0.286,0.107-0.535,0.276-0.749,0.508
		c-0.214,0.232-0.381,0.526-0.5,0.883c-0.119,0.356-0.178,0.779-0.178,1.266v4.352h-1.605V1012.817z"/>
	<path class="cls-1" d="M1770.6,1007.789h1.605v13.482h-1.605V1007.789z"/>
</g>
<polygon class="cls-1" fill="#2EBA9D" points="1652.863,1025.036 1651.722,1019.688 1651.711,1019.688 1651.711,1019.685 1623.994,1019.685
	1623.994,1019.688 1623.878,1019.688 1622.698,1025.036 1627.662,1025.036 1628.343,1021.947 1647.391,1021.947 1648.053,1025.036 
	"/>
<polygon class="cls-1" fill="#2EBA9D" points="1628.372,1039.721 1637.02,1039.721 1637.02,1023.47 1631.353,1023.472 "/>
<polygon class="cls-1" fill="#2EBA9D" points="1640.555,1008.93 1638.395,1008.93 1638.395,1018.166 1643.232,1018.168 "/>
<polygon class="cls-1" fill="#2EBA9D" points="1638.395,1023.47 1638.395,1039.721 1647.042,1039.721 1644.061,1023.472 "/>
<polyline class="cls-1" fill="#2EBA9D" points="1632.182,1018.168 1634.856,1008.93 1637.02,1008.93 1637.02,1018.166 "/>
<path class="cls-1" fill="#2EBA9D" d="M1660.76,1006.825c-0.664-3.455-3.685-5.956-7.203-5.958h-31.358c-4.049,0.004-7.331,3.286-7.335,7.334
	v31.359c0.004,4.047,3.286,7.329,7.335,7.333h31.358c4.046-0.004,7.327-3.282,7.335-7.33v-16.451
	c-0.49,0.069-0.983,0.105-1.477,0.105c-0.336,0-0.664-0.02-0.992-0.048v16.391c-0.002,2.685-2.18,4.862-4.866,4.864h-31.358
	c-2.688-0.002-4.863-2.18-4.867-4.864v-31.359c0.003-2.688,2.179-4.864,4.867-4.867h31.358c2.149,0.003,4.043,1.415,4.662,3.475
	c0.396-0.046,0.796-0.068,1.196-0.069C1659.864,1006.74,1660.314,1006.768,1660.76,1006.825z"/>
<path class="cls-1" d="M1670.019,1032.253c0-0.261,0.095-0.484,0.283-0.674c0.188-0.187,0.412-0.282,0.672-0.282c0.261,0,0.485,0.096,0.673,0.282
	c0.188,0.189,0.282,0.413,0.282,0.674s-0.094,0.484-0.282,0.673c-0.188,0.187-0.412,0.282-0.673,0.282
	c-0.26,0-0.484-0.096-0.672-0.282C1670.113,1032.738,1670.019,1032.514,1670.019,1032.253z M1670.323,1034.711h1.301v6.857h-1.301
	V1034.711z"/>
<path class="cls-1" d="M1674.72,1041.656c-0.26,0-0.485-0.095-0.672-0.282c-0.188-0.189-0.282-0.413-0.282-0.674c0-0.259,0.094-0.484,0.282-0.671
	c0.188-0.188,0.413-0.283,0.672-0.283s0.485,0.095,0.673,0.283c0.188,0.187,0.281,0.412,0.281,0.671
	c0,0.261-0.094,0.484-0.281,0.674C1675.205,1041.561,1674.979,1041.656,1674.72,1041.656z"/>
<path class="cls-1" d="M1681.358,1036.434c-0.154-0.193-0.345-0.355-0.571-0.485c-0.227-0.13-0.504-0.195-0.832-0.195
	c-0.309,0-0.576,0.065-0.803,0.195c-0.227,0.13-0.339,0.32-0.339,0.572c0,0.203,0.064,0.366,0.195,0.491
	c0.131,0.126,0.284,0.227,0.463,0.303c0.177,0.077,0.369,0.136,0.571,0.175c0.202,0.037,0.375,0.072,0.52,0.101
	c0.279,0.067,0.543,0.149,0.789,0.244c0.246,0.098,0.458,0.224,0.636,0.379c0.179,0.153,0.318,0.342,0.42,0.563
	c0.101,0.222,0.151,0.491,0.151,0.809c0,0.388-0.082,0.718-0.246,0.993c-0.164,0.272-0.375,0.498-0.636,0.672
	c-0.26,0.175-0.557,0.298-0.889,0.375c-0.333,0.079-0.667,0.116-1.006,0.116c-0.568,0-1.067-0.086-1.497-0.261
	c-0.43-0.173-0.813-0.492-1.149-0.954l0.983-0.812c0.212,0.214,0.449,0.401,0.709,0.565c0.261,0.165,0.579,0.246,0.954,0.246
	c0.165,0,0.331-0.016,0.5-0.051c0.168-0.033,0.318-0.087,0.448-0.158c0.13-0.072,0.236-0.165,0.318-0.275
	c0.082-0.111,0.123-0.239,0.123-0.385c0-0.191-0.061-0.352-0.181-0.476c-0.121-0.126-0.266-0.226-0.434-0.298
	c-0.169-0.072-0.347-0.129-0.535-0.173s-0.354-0.079-0.499-0.109c-0.28-0.067-0.545-0.145-0.796-0.23s-0.472-0.202-0.666-0.348
	c-0.192-0.145-0.347-0.328-0.462-0.55s-0.173-0.496-0.173-0.823c0-0.357,0.074-0.669,0.224-0.935
	c0.149-0.263,0.348-0.484,0.593-0.657c0.246-0.174,0.525-0.304,0.839-0.392c0.313-0.086,0.629-0.129,0.948-0.129
	c0.462,0,0.906,0.087,1.33,0.259c0.424,0.175,0.763,0.465,1.013,0.87L1681.358,1036.434z"/>
<path class="cls-1" d="M1685.163,1041.656c-0.26,0-0.485-0.095-0.673-0.282c-0.188-0.189-0.282-0.413-0.282-0.674c0-0.259,0.094-0.484,0.282-0.671
	c0.188-0.188,0.413-0.283,0.673-0.283s0.484,0.095,0.672,0.283c0.189,0.187,0.283,0.412,0.283,0.671
	c0,0.261-0.094,0.484-0.283,0.674C1685.647,1041.561,1685.423,1041.656,1685.163,1041.656z"/>
<path class="cls-1" d="M1688.157,1034.711h1.214v1.07h0.029c0.03-0.096,0.104-0.217,0.225-0.361s0.274-0.281,0.463-0.412
	c0.188-0.131,0.409-0.24,0.665-0.332c0.256-0.093,0.538-0.138,0.847-0.138c0.51,0,0.939,0.105,1.287,0.317
	c0.347,0.213,0.632,0.532,0.853,0.956c0.222-0.424,0.536-0.743,0.94-0.956c0.406-0.212,0.814-0.317,1.229-0.317
	c0.531,0,0.964,0.087,1.301,0.259c0.338,0.175,0.603,0.404,0.796,0.688c0.193,0.284,0.325,0.608,0.397,0.969
	c0.072,0.362,0.108,0.735,0.108,1.122v3.992h-1.302v-3.82c0-0.259-0.016-0.51-0.05-0.75c-0.034-0.242-0.104-0.454-0.21-0.639
	c-0.106-0.182-0.255-0.329-0.448-0.44c-0.193-0.109-0.448-0.166-0.767-0.166c-0.627,0-1.076,0.193-1.345,0.578
	c-0.271,0.388-0.406,0.884-0.406,1.489v3.748h-1.301v-3.587c0-0.329-0.017-0.627-0.05-0.897c-0.034-0.27-0.102-0.503-0.204-0.702
	c-0.101-0.197-0.246-0.352-0.433-0.463c-0.188-0.109-0.442-0.166-0.76-0.166c-0.231,0-0.456,0.046-0.672,0.138
	c-0.217,0.091-0.408,0.229-0.571,0.412c-0.165,0.184-0.294,0.418-0.39,0.702c-0.097,0.284-0.145,0.62-0.145,1.004v3.56h-1.302
	V1034.711z"/>
</svg>
