<?xml version="1.0" encoding="UTF-8"?> <!-- Generator: Adobe Illustrator 16.0.3, SVG Export Plug-In . SVG Version: 6.00 Build 0) --> <svg xmlns="http://www.w3.org/2000/svg" xmlns:xlink="http://www.w3.org/1999/xlink" id="Layer_1" x="0px" y="0px" width="842.855px" height="206.863px" viewBox="0 0 842.855 206.863" xml:space="preserve"> <title>Tolvignetten_Zondertagline_v2</title> <polygon fill="#2EBA9D" points="170.424,106.952 165.383,83.323 165.336,83.323 165.336,83.309 42.877,83.309 42.877,83.323 42.363,83.323 37.152,106.952 59.086,106.952 62.09,93.307 146.244,93.307 149.174,106.952 "></polygon> <polygon fill="#2EBA9D" points="62.223,171.836 100.426,171.836 100.426,100.032 75.393,100.043 "></polygon> <polygon fill="#2EBA9D" points="116.049,35.793 106.504,35.793 106.504,76.596 127.877,76.61 "></polygon> <polygon fill="#2EBA9D" points="106.504,100.032 106.504,171.836 144.709,171.836 131.537,100.043 "></polygon> <polyline fill="#2EBA9D" points="79.055,76.61 90.869,35.793 100.426,35.793 100.426,76.596 "></polyline> <path fill="#2EBA9D" d="M199.938,180.501c-1.792-0.002-3.584-0.105-5.367-0.31c-2.769,9.246-11.271,15.582-20.92,15.594H32.922 c-12.059-0.014-21.831-9.786-21.846-21.845V33.212c0.014-12.059,9.786-21.831,21.846-21.844h140.729 c12.059,0.014,21.831,9.786,21.844,21.844v73.559c1.465-0.136,2.942-0.223,4.443-0.223c2.219,0.004,4.437,0.163,6.633,0.48V33.188 c-0.034-18.163-14.756-32.876-32.92-32.896H32.922C14.749,0.313,0.022,15.039,0,33.214v140.727 c0.022,18.176,14.749,32.902,32.922,32.922h140.729c15.792-0.018,29.352-11.234,32.329-26.744 C203.978,180.371,201.959,180.5,199.938,180.501z"></path> <image display="none" overflow="visible" width="60" height="60" xlink:href="95CDEE19.png" transform="matrix(1.9305 0 0 1.8312 1708.3646 922.4644)"> </image> <path d="M175.585,115.777h13.172l12.95,34.336h0.148l13.172-34.336h12.358l-21.608,52.393h-9.25L175.585,115.777z"></path> <path d="M231.455,120.882c0-1.775,0.629-3.293,1.887-4.551c1.258-1.258,2.775-1.887,4.551-1.887s3.293,0.629,4.551,1.887 c1.258,1.258,1.887,2.775,1.887,4.551c0,1.777-0.629,3.293-1.887,4.552c-1.258,1.258-2.775,1.887-4.551,1.887 s-3.293-0.629-4.551-1.887C232.084,124.175,231.455,122.66,231.455,120.882z M232.343,132.205h11.1v35.965h-11.1V132.205z"></path> <path d="M289.174,165.134c0,6.809-1.715,11.977-5.143,15.504c-3.43,3.526-8.646,5.291-15.651,5.291 c-3.208,0-6.364-0.359-9.472-1.073c-3.108-0.716-5.97-2.108-8.584-4.181l6.142-9.176c1.726,1.43,3.539,2.564,5.439,3.403 c1.898,0.839,3.983,1.259,6.253,1.259c3.404,0,5.907-0.828,7.511-2.479c1.603-1.653,2.405-3.763,2.405-6.327v-3.479h-0.148 c-1.284,1.729-2.875,2.949-4.773,3.664c-1.9,0.714-3.688,1.072-5.365,1.072c-2.664,0-5.082-0.455-7.252-1.369 c-2.171-0.912-4.033-2.194-5.587-3.848c-1.554-1.652-2.75-3.613-3.589-5.883c-0.839-2.27-1.258-4.761-1.258-7.475 c0-2.367,0.382-4.686,1.147-6.955c0.765-2.27,1.85-4.268,3.256-5.994c1.406-1.727,3.12-3.12,5.143-4.182 c2.022-1.061,4.316-1.591,6.882-1.591c1.578,0,3.021,0.173,4.329,0.519c1.306,0.346,2.479,0.789,3.515,1.332 c1.036,0.543,1.924,1.146,2.664,1.813c0.74,0.666,1.332,1.32,1.776,1.961h0.148v-4.736h10.212V165.134z M261.202,149.964 c0,1.185,0.222,2.307,0.666,3.367c0.444,1.063,1.073,1.998,1.887,2.813s1.75,1.469,2.812,1.961c1.06,0.494,2.231,0.74,3.515,0.74 c1.233,0,2.393-0.246,3.478-0.74c1.084-0.492,2.035-1.146,2.849-1.961s1.443-1.75,1.887-2.813c0.444-1.061,0.666-2.183,0.666-3.367 c0-1.184-0.222-2.305-0.666-3.366c-0.444-1.061-1.073-1.998-1.887-2.812c-0.814-0.814-1.765-1.468-2.849-1.962 c-1.085-0.492-2.245-0.739-3.478-0.739c-1.283,0-2.455,0.247-3.515,0.739c-1.062,0.494-1.998,1.147-2.812,1.962 c-0.814,0.813-1.443,1.751-1.887,2.812C261.424,147.66,261.202,148.781,261.202,149.964z"></path> <path d="M298.053,132.205h10.656v4.885h0.148c0.345-0.691,0.838-1.381,1.48-2.072c0.641-0.69,1.406-1.307,2.294-1.85 s1.898-0.986,3.034-1.332c1.134-0.346,2.368-0.519,3.7-0.519c2.812,0,5.081,0.433,6.808,1.295c1.727,0.864,3.071,2.061,4.033,3.589 c0.962,1.529,1.615,3.33,1.961,5.402c0.345,2.072,0.518,4.317,0.518,6.734v19.832h-11.1v-17.612c0-1.036-0.037-2.109-0.111-3.22 c-0.074-1.109-0.296-2.133-0.666-3.07c-0.37-0.937-0.938-1.702-1.702-2.294c-0.766-0.593-1.863-0.888-3.293-0.888 c-1.432,0-2.59,0.258-3.478,0.776c-0.888,0.519-1.567,1.21-2.035,2.072c-0.469,0.864-0.777,1.839-0.925,2.923 c-0.148,1.086-0.222,2.221-0.222,3.404v17.908h-11.1V132.205z"></path> <path d="M374.569,161.953c-1.776,2.27-4.021,4.021-6.734,5.254s-5.525,1.851-8.436,1.851c-2.764,0-5.365-0.444-7.807-1.332 c-2.442-0.888-4.564-2.157-6.364-3.812c-1.802-1.652-3.219-3.637-4.255-5.957c-1.036-2.318-1.555-4.908-1.555-7.77 s0.519-5.451,1.555-7.77s2.453-4.305,4.255-5.957c1.8-1.652,3.922-2.924,6.364-3.812c2.441-0.888,5.043-1.332,7.807-1.332 c2.564,0,4.896,0.444,6.993,1.332c2.096,0.888,3.872,2.159,5.328,3.812c1.454,1.652,2.577,3.639,3.367,5.957 c0.788,2.318,1.184,4.908,1.184,7.77v3.479h-25.752c0.444,2.121,1.406,3.811,2.886,5.068c1.48,1.258,3.305,1.887,5.477,1.887 c1.824,0,3.366-0.406,4.625-1.221c1.258-0.814,2.354-1.861,3.293-3.145L374.569,161.953z M365.171,146.117 c0.048-1.874-0.568-3.478-1.851-4.81c-1.283-1.332-2.936-1.998-4.958-1.998c-1.233,0-2.319,0.198-3.256,0.592 c-0.938,0.396-1.739,0.901-2.405,1.517c-0.666,0.617-1.184,1.332-1.554,2.146s-0.58,1.665-0.629,2.553H365.171z"></path> <path d="M407.497,141.085h-9.768v11.987c0,0.987,0.048,1.888,0.147,2.701c0.099,0.813,0.32,1.517,0.666,2.108 c0.345,0.593,0.875,1.049,1.591,1.369c0.715,0.322,1.665,0.481,2.85,0.481c0.592,0,1.369-0.062,2.331-0.185s1.688-0.407,2.183-0.852 v9.25c-1.233,0.444-2.516,0.74-3.848,0.889c-1.332,0.147-2.64,0.222-3.922,0.222c-1.876,0-3.603-0.198-5.181-0.593 c-1.579-0.394-2.96-1.022-4.144-1.887c-1.185-0.862-2.109-1.984-2.775-3.367c-0.666-1.38-0.999-3.058-0.999-5.031v-17.094h-7.104 v-8.881h7.104v-10.656h11.101v10.656h9.768V141.085z"></path> <path d="M411.789,150.187c0-2.861,0.519-5.451,1.554-7.77c1.036-2.318,2.454-4.305,4.256-5.957c1.8-1.652,3.922-2.924,6.363-3.812 c2.442-0.888,5.044-1.332,7.808-1.332c2.762,0,5.364,0.444,7.807,1.332s4.563,2.159,6.364,3.812c1.8,1.652,3.219,3.639,4.255,5.957 s1.554,4.908,1.554,7.77s-0.518,5.451-1.554,7.77c-1.036,2.32-2.455,4.305-4.255,5.957c-1.802,1.654-3.922,2.924-6.364,3.812 s-5.045,1.332-7.807,1.332c-2.764,0-5.365-0.444-7.808-1.332c-2.441-0.888-4.563-2.157-6.363-3.812 c-1.802-1.652-3.22-3.637-4.256-5.957C412.308,155.638,411.789,153.048,411.789,150.187z M422.89,150.187 c0,2.714,0.776,4.909,2.331,6.586c1.554,1.678,3.736,2.516,6.549,2.516c2.812,0,4.995-0.838,6.549-2.516 c1.554-1.677,2.331-3.872,2.331-6.586c0-2.713-0.777-4.908-2.331-6.586c-1.554-1.677-3.737-2.516-6.549-2.516 c-2.813,0-4.995,0.839-6.549,2.516C423.666,145.279,422.89,147.474,422.89,150.187z"></path> <path d="M456.928,150.187c0-2.861,0.519-5.451,1.554-7.77c1.036-2.318,2.454-4.305,4.256-5.957c1.8-1.652,3.922-2.924,6.363-3.812 c2.442-0.888,5.044-1.332,7.808-1.332c2.762,0,5.364,0.444,7.807,1.332s4.563,2.159,6.364,3.812c1.8,1.652,3.219,3.639,4.255,5.957 s1.554,4.908,1.554,7.77s-0.518,5.451-1.554,7.77c-1.036,2.32-2.455,4.305-4.255,5.957c-1.802,1.654-3.922,2.924-6.364,3.812 s-5.045,1.332-7.807,1.332c-2.764,0-5.365-0.444-7.808-1.332c-2.441-0.888-4.563-2.157-6.363-3.812 c-1.802-1.652-3.22-3.637-4.256-5.957C457.447,155.638,456.928,153.048,456.928,150.187z M468.029,150.187 c0,2.714,0.776,4.909,2.331,6.586c1.554,1.678,3.736,2.516,6.549,2.516c2.812,0,4.995-0.838,6.549-2.516 c1.554-1.677,2.331-3.872,2.331-6.586c0-2.713-0.777-4.908-2.331-6.586c-1.554-1.677-3.737-2.516-6.549-2.516 c-2.813,0-4.995,0.839-6.549,2.516C468.805,145.279,468.029,147.474,468.029,150.187z"></path> <path d="M523.75,142.787c-1.629-2.021-3.774-3.033-6.438-3.033c-0.938,0-1.85,0.222-2.738,0.666 c-0.888,0.443-1.332,1.209-1.332,2.293c0,0.889,0.456,1.543,1.369,1.961c0.912,0.42,2.072,0.791,3.479,1.111 c1.405,0.32,2.91,0.665,4.514,1.035c1.603,0.37,3.108,0.951,4.514,1.739c1.406,0.79,2.564,1.862,3.479,3.219 c0.912,1.357,1.369,3.171,1.369,5.438c0,2.32-0.507,4.231-1.518,5.736c-1.012,1.505-2.307,2.713-3.885,3.625 c-1.579,0.914-3.355,1.555-5.328,1.924c-1.974,0.371-3.922,0.556-5.846,0.556c-2.517,0-5.058-0.358-7.622-1.073 c-2.565-0.715-4.736-1.985-6.512-3.811l6.733-7.475c1.036,1.283,2.184,2.258,3.441,2.924s2.726,0.998,4.402,0.998 c1.283,0,2.442-0.185,3.479-0.555s1.554-1.047,1.554-2.035c0-0.937-0.456-1.639-1.369-2.109c-0.913-0.468-2.071-0.861-3.478-1.184 c-1.406-0.32-2.911-0.666-4.514-1.035c-1.604-0.371-3.108-0.926-4.515-1.666c-1.405-0.74-2.565-1.787-3.478-3.145 c-0.914-1.356-1.369-3.17-1.369-5.439c0-2.12,0.432-3.945,1.295-5.476c0.862-1.528,1.998-2.786,3.404-3.774 c1.405-0.986,3.021-1.713,4.847-2.183c1.824-0.468,3.675-0.703,5.55-0.703c2.368,0,4.761,0.346,7.179,1.036 c2.416,0.691,4.464,1.924,6.142,3.699L523.75,142.787z"></path> <path d="M562.156,141.085h-9.768v11.987c0,0.987,0.048,1.888,0.147,2.701c0.099,0.813,0.32,1.517,0.666,2.108 c0.345,0.593,0.875,1.049,1.591,1.369c0.715,0.322,1.665,0.481,2.85,0.481c0.592,0,1.369-0.062,2.331-0.185s1.688-0.407,2.183-0.852 v9.25c-1.233,0.444-2.516,0.74-3.848,0.889c-1.332,0.147-2.64,0.222-3.922,0.222c-1.876,0-3.603-0.198-5.181-0.593 c-1.579-0.394-2.96-1.022-4.144-1.887c-1.185-0.862-2.109-1.984-2.775-3.367c-0.666-1.38-0.999-3.058-0.999-5.031v-17.094h-7.104 v-8.881h7.104v-10.656h11.101v10.656h9.768V141.085z"></path> <path d="M601.819,161.953c-1.776,2.27-4.021,4.021-6.734,5.254s-5.525,1.851-8.436,1.851c-2.764,0-5.365-0.444-7.807-1.332 c-2.442-0.888-4.564-2.157-6.364-3.812c-1.802-1.652-3.219-3.637-4.255-5.957c-1.036-2.318-1.555-4.908-1.555-7.77 s0.519-5.451,1.555-7.77s2.453-4.305,4.255-5.957c1.8-1.652,3.922-2.924,6.364-3.812c2.441-0.888,5.043-1.332,7.807-1.332 c2.564,0,4.896,0.444,6.993,1.332c2.096,0.888,3.872,2.159,5.328,3.812c1.454,1.652,2.577,3.639,3.367,5.957 c0.788,2.318,1.184,4.908,1.184,7.77v3.479h-25.752c0.444,2.121,1.406,3.811,2.886,5.068c1.48,1.258,3.305,1.887,5.477,1.887 c1.824,0,3.366-0.406,4.625-1.221c1.258-0.814,2.354-1.861,3.293-3.145L601.819,161.953z M592.421,146.117 c0.048-1.874-0.568-3.478-1.851-4.81c-1.283-1.332-2.936-1.998-4.958-1.998c-1.233,0-2.319,0.198-3.256,0.592 c-0.938,0.396-1.739,0.901-2.405,1.517c-0.666,0.617-1.184,1.332-1.554,2.146s-0.58,1.665-0.629,2.553H592.421z"></path> <path d="M610.254,132.205h10.656v4.885h0.147c0.345-0.691,0.839-1.381,1.48-2.072c0.641-0.69,1.406-1.307,2.294-1.85 s1.898-0.986,3.034-1.332c1.134-0.346,2.368-0.519,3.7-0.519c2.812,0,5.08,0.433,6.808,1.295c1.727,0.864,3.071,2.061,4.033,3.589 c0.962,1.529,1.615,3.33,1.961,5.402c0.345,2.072,0.518,4.317,0.518,6.734v19.832h-11.1v-17.612c0-1.036-0.037-2.109-0.111-3.22 c-0.074-1.109-0.296-2.133-0.666-3.07c-0.37-0.937-0.938-1.702-1.702-2.294c-0.765-0.593-1.862-0.888-3.293-0.888 s-2.59,0.258-3.478,0.776s-1.566,1.21-2.035,2.072c-0.47,0.864-0.777,1.839-0.925,2.923c-0.148,1.086-0.222,2.221-0.222,3.404 v17.908h-11.101V132.205z"></path> <path d="M652.73,132.205h11.101v5.772h0.147c1.184-2.22,2.59-3.886,4.218-4.995s3.675-1.665,6.143-1.665 c0.641,0,1.282,0.025,1.924,0.074c0.641,0.05,1.232,0.147,1.776,0.296v10.138c-0.79-0.246-1.567-0.431-2.331-0.555 c-0.766-0.122-1.567-0.185-2.405-0.185c-2.122,0-3.8,0.295-5.032,0.888c-1.233,0.592-2.183,1.419-2.849,2.479 s-1.099,2.33-1.295,3.811c-0.198,1.48-0.296,3.107-0.296,4.884v15.022H652.73V132.205z"></path> <path d="M682.107,120.882c0-1.775,0.629-3.293,1.888-4.551c1.258-1.258,2.774-1.887,4.551-1.887s3.293,0.629,4.551,1.887 s1.887,2.775,1.887,4.551c0,1.777-0.629,3.293-1.887,4.552c-1.258,1.258-2.774,1.887-4.551,1.887s-3.293-0.629-4.551-1.887 C682.736,124.175,682.107,122.66,682.107,120.882z M682.995,132.205h11.1v35.965h-11.1V132.205z"></path> <path d="M713.335,170.833c0,2.318-0.222,4.402-0.666,6.252c-0.444,1.851-1.184,3.429-2.22,4.736 c-1.036,1.307-2.405,2.318-4.107,3.034c-1.702,0.714-3.811,1.073-6.327,1.073c-0.839,0-1.701-0.037-2.59-0.111 c-0.888-0.074-1.75-0.234-2.59-0.48l0.592-9.842c0.889,0.443,1.851,0.666,2.887,0.666c0.937,0,1.676-0.248,2.22-0.74 c0.542-0.494,0.937-1.11,1.184-1.851c0.246-0.739,0.395-1.53,0.444-2.368c0.049-0.84,0.074-1.604,0.074-2.293v-36.705h11.1V170.833z M701.347,120.882c0-1.775,0.629-3.293,1.888-4.551c1.258-1.258,2.774-1.887,4.551-1.887s3.293,0.629,4.551,1.887 s1.887,2.775,1.887,4.551c0,1.777-0.629,3.293-1.887,4.552c-1.258,1.258-2.774,1.887-4.551,1.887s-3.293-0.629-4.551-1.887 C701.976,124.175,701.347,122.66,701.347,120.882z"></path> <path d="M721.327,112.225h11.101v34.188l12.283-14.209h13.616l-14.282,16.207l14.652,19.758H744.71l-12.136-18.205h-0.147v18.205 h-11.101V112.225z"></path> <path d="M762.692,163.291c0-0.731,0.135-1.427,0.405-2.082c0.27-0.656,0.646-1.224,1.129-1.706c0.481-0.482,1.049-0.858,1.706-1.129 c0.655-0.27,1.35-0.404,2.082-0.404s1.427,0.135,2.083,0.404c0.654,0.271,1.224,0.646,1.706,1.129 c0.481,0.482,0.858,1.05,1.128,1.706c0.27,0.655,0.405,1.351,0.405,2.082c0,0.733-0.136,1.428-0.405,2.082 c-0.27,0.657-0.646,1.226-1.128,1.707c-0.482,0.482-1.052,0.859-1.706,1.129c-0.656,0.269-1.351,0.404-2.083,0.404 s-1.427-0.136-2.082-0.404c-0.657-0.27-1.225-0.646-1.706-1.129c-0.483-0.481-0.859-1.05-1.129-1.707 C762.827,164.718,762.692,164.024,762.692,163.291z"></path> <path d="M779.642,140.151h8.33v3.818h0.115c0.27-0.54,0.656-1.079,1.158-1.619c0.5-0.54,1.099-1.021,1.793-1.446 c0.693-0.425,1.484-0.771,2.371-1.041c0.887-0.271,1.852-0.405,2.893-0.405c2.198,0,3.972,0.338,5.322,1.012 c1.35,0.676,2.401,1.611,3.153,2.806c0.752,1.195,1.263,2.604,1.532,4.224s0.405,3.375,0.405,5.265v15.503h-8.677v-13.769 c0-0.81-0.029-1.648-0.088-2.517c-0.058-0.867-0.23-1.667-0.521-2.4c-0.289-0.731-0.732-1.33-1.33-1.793 c-0.599-0.464-1.456-0.694-2.574-0.694s-2.024,0.202-2.719,0.607s-1.225,0.945-1.591,1.62c-0.367,0.675-0.607,1.438-0.723,2.284 c-0.117,0.85-0.174,1.736-0.174,2.662v13.999h-8.678V140.151z"></path> <path d="M812.962,124.533h8.677v43.733h-8.677V124.533z"></path> </svg> 