<?xml version="1.0" encoding="utf-8"?>
<!-- Generator: Adobe Illustrator 24.1.0, SVG Export Plug-In . SVG Version: 6.00 Build 0)  -->
<svg xmlns="http://www.w3.org/2000/svg" xmlns:xlink="http://www.w3.org/1999/xlink" id="Layer_1" x="0px" y="0px" width="842.855px" height="206.863px" viewBox="0 0 842.855 206.863" xml:space="preserve">
<style type="text/css">
	.st0{fill:#2EBA9D;}
	.st1{display:none;}
	.st2{display:inline;}
	.st3{font-family:'AvenirNext-Bold';}
	.st4{font-size:61.5656px;}
</style>
    <g id="Layer_1">
	<polygon class="st0" points="170.4,107 165.4,83.3 165.3,83.3 165.3,83.3 42.9,83.3 42.9,83.3 42.4,83.3 37.2,107 59.1,107 
		62.1,93.3 146.2,93.3 149.2,107 	"/>
        <polygon class="st0" points="62.2,171.8 100.4,171.8 100.4,100 75.4,100 	"/>
        <polygon class="st0" points="116,35.8 106.5,35.8 106.5,76.6 127.9,76.6 	"/>
        <polygon class="st0" points="106.5,100 106.5,171.8 144.7,171.8 131.5,100 	"/>
        <polyline class="st0" points="79.1,76.6 90.9,35.8 100.4,35.8 100.4,76.6 	"/>
        <path class="st0" d="M199.9,180.5c-1.8,0-3.6-0.1-5.4-0.3c-2.8,9.2-11.3,15.6-20.9,15.6H32.9c-12.1,0-21.8-9.8-21.8-21.8V33.2
		c0-12.1,9.8-21.8,21.8-21.8h140.7c12.1,0,21.8,9.8,21.8,21.8v73.6c1.5-0.1,2.9-0.2,4.4-0.2c2.2,0,4.4,0.2,6.6,0.5V33.2
		c0-18.2-14.8-32.9-32.9-32.9H32.9C14.7,0.3,0,15,0,33.2v140.7c0,18.2,14.7,32.9,32.9,32.9h140.7c15.8,0,29.4-11.2,32.3-26.7
		C204,180.4,202,180.5,199.9,180.5z"/>
</g>
    <g id="Capa_2">
	<g>
		<path d="M177.4,166.1h-10.5l-16.5-43.6h11.8l10.1,30.9h0.2l10-30.9h11.6L177.4,166.1z"/>
        <path d="M207.1,125.6c0,0.8-0.2,1.5-0.5,2.2c-0.3,0.7-0.7,1.3-1.2,1.8c-0.5,0.5-1.1,0.9-1.8,1.2c-0.7,0.3-1.5,0.4-2.2,0.4
			c-1.6,0-3-0.5-4.1-1.6c-1.1-1.1-1.7-2.4-1.7-3.9c0-0.7,0.1-1.4,0.4-2.1c0.3-0.7,0.7-1.3,1.2-1.8c0.5-0.5,1.1-0.9,1.8-1.2
			c0.7-0.3,1.5-0.5,2.3-0.5c0.8,0,1.5,0.1,2.2,0.4c0.7,0.3,1.3,0.7,1.8,1.2c0.5,0.5,0.9,1.1,1.2,1.8
			C207,124.1,207.1,124.9,207.1,125.6z M196.3,166.1v-30.7h10.1v30.7H196.3z"/>
        <path d="M246.9,163.2c0,3-0.4,5.6-1.3,7.8c-0.9,2.2-2.1,4.1-3.6,5.5c-1.6,1.5-3.5,2.5-5.7,3.3c-2.2,0.7-4.7,1.1-7.4,1.1
			s-5.5-0.4-8.3-1.2c-2.9-0.8-5.3-2-7.4-3.6l5-7.2c1.5,1.3,3.1,2.3,4.9,2.9c1.8,0.6,3.5,1,5.3,1c3,0,5.1-0.8,6.6-2.3
			c1.4-1.6,2.1-3.6,2.1-6.2v-1.8h-0.2c-0.9,1.2-2.2,2.2-3.8,3c-1.6,0.7-3.4,1.1-5.5,1.1c-2.3,0-4.4-0.4-6.2-1.3
			c-1.8-0.8-3.3-2-4.6-3.4c-1.3-1.4-2.2-3.1-2.9-5c-0.7-1.9-1-3.9-1-6.1c0-2.1,0.3-4.2,1-6.1c0.7-1.9,1.6-3.6,2.9-5.1
			c1.3-1.5,2.8-2.7,4.6-3.5c1.8-0.9,3.9-1.3,6.2-1.3c1.9,0,3.8,0.4,5.5,1.2c1.8,0.8,3.2,2,4.2,3.6h0.1v-3.9h9.5V163.2z M237.3,150.6
			c0-1-0.2-2-0.5-3c-0.3-0.9-0.9-1.8-1.5-2.5c-0.7-0.7-1.4-1.3-2.3-1.7c-0.9-0.4-1.9-0.6-3.1-0.6c-1.1,0-2.2,0.2-3,0.6
			c-0.9,0.4-1.6,1-2.2,1.7c-0.6,0.7-1.1,1.5-1.4,2.5c-0.3,0.9-0.5,2-0.5,3c0,1,0.2,2,0.5,3c0.3,0.9,0.8,1.8,1.4,2.5
			c0.6,0.7,1.4,1.3,2.2,1.7c0.9,0.4,1.9,0.6,3,0.6c1.1,0,2.2-0.2,3.1-0.6c0.9-0.4,1.7-1,2.3-1.7c0.6-0.7,1.1-1.5,1.5-2.5
			C237.1,152.7,237.3,151.6,237.3,150.6z"/>
        <path d="M275,166.1v-16.7c0-0.9-0.1-1.7-0.2-2.5c-0.1-0.8-0.4-1.5-0.7-2.1c-0.3-0.6-0.8-1.1-1.4-1.4c-0.6-0.3-1.3-0.5-2.2-0.5
			c-0.9,0-1.7,0.2-2.4,0.5s-1.2,0.8-1.7,1.4c-0.5,0.6-0.8,1.3-1,2.1c-0.2,0.8-0.3,1.6-0.3,2.5v16.6h-10.2v-30.7h9.8v4.2h0.1
			c0.4-0.7,0.9-1.3,1.4-1.9c0.6-0.6,1.3-1.2,2.1-1.6c0.8-0.5,1.7-0.8,2.6-1.1c0.9-0.3,1.9-0.4,3-0.4c2.1,0,3.8,0.4,5.2,1.1
			c1.4,0.7,2.6,1.7,3.5,2.9c0.9,1.2,1.5,2.5,1.9,4c0.4,1.5,0.6,3,0.6,4.6v19H275z"/>
        <path d="M323.2,151.1c0,0.4,0,0.8,0,1.2c0,0.4,0,0.8-0.1,1.2h-22.2c0.1,0.9,0.3,1.6,0.8,2.3c0.4,0.7,1,1.3,1.7,1.8
			c0.7,0.5,1.4,0.9,2.3,1.2c0.8,0.3,1.7,0.4,2.6,0.4c1.6,0,3-0.3,4.1-0.9c1.1-0.6,2-1.4,2.7-2.3l7,4.4c-1.4,2.1-3.3,3.7-5.7,4.8
			c-2.4,1.1-5.1,1.7-8.2,1.7c-2.3,0-4.5-0.4-6.5-1.1c-2.1-0.7-3.8-1.8-5.4-3.1c-1.5-1.4-2.8-3.1-3.6-5.1c-0.9-2-1.3-4.3-1.3-6.9
			c0-2.5,0.4-4.8,1.3-6.8s2-3.8,3.5-5.2s3.2-2.5,5.2-3.3c2-0.8,4.2-1.2,6.5-1.2c2.3,0,4.3,0.4,6.2,1.1c1.9,0.8,3.5,1.9,4.9,3.3
			c1.4,1.4,2.4,3.2,3.2,5.2C322.9,146.2,323.2,148.5,323.2,151.1z M313.9,147.3c0-1.6-0.5-3-1.5-4.1c-1-1.1-2.5-1.7-4.5-1.7
			c-1,0-1.9,0.2-2.7,0.5c-0.8,0.3-1.5,0.7-2.2,1.3c-0.6,0.5-1.1,1.2-1.5,1.9c-0.4,0.7-0.6,1.5-0.6,2.2H313.9z"/>
        <path d="M340.5,142.9v11.7c0,1.4,0.3,2.5,0.8,3.2s1.5,1.1,3,1.1c0.5,0,1,0,1.6-0.1c0.6-0.1,1-0.2,1.4-0.4l0.1,7.4
			c-0.7,0.2-1.6,0.5-2.6,0.6c-1.1,0.2-2.1,0.3-3.2,0.3c-2.1,0-3.8-0.3-5.2-0.8c-1.4-0.5-2.5-1.3-3.4-2.2c-0.8-1-1.4-2.1-1.8-3.5
			c-0.4-1.3-0.6-2.8-0.6-4.5v-13h-4.9v-7.5h4.9v-8.1h9.9v8.1h7.2v7.5H340.5z"/>
        <path d="M361.9,142.9v11.7c0,1.4,0.3,2.5,0.8,3.2s1.5,1.1,3,1.1c0.5,0,1,0,1.6-0.1c0.6-0.1,1-0.2,1.4-0.4l0.1,7.4
			c-0.7,0.2-1.6,0.5-2.6,0.6c-1.1,0.2-2.1,0.3-3.2,0.3c-2.1,0-3.8-0.3-5.2-0.8c-1.4-0.5-2.5-1.3-3.4-2.2c-0.8-1-1.4-2.1-1.8-3.5
			c-0.4-1.3-0.6-2.8-0.6-4.5v-13h-4.9v-7.5h4.9v-8.1h9.9v8.1h7.2v7.5H361.9z"/>
        <path d="M404.3,151.1c0,0.4,0,0.8,0,1.2c0,0.4,0,0.8-0.1,1.2H382c0.1,0.9,0.3,1.6,0.8,2.3c0.4,0.7,1,1.3,1.7,1.8
			c0.7,0.5,1.4,0.9,2.3,1.2c0.8,0.3,1.7,0.4,2.6,0.4c1.6,0,3-0.3,4.1-0.9c1.1-0.6,2-1.4,2.7-2.3l7,4.4c-1.4,2.1-3.3,3.7-5.7,4.8
			c-2.4,1.1-5.1,1.7-8.2,1.7c-2.3,0-4.5-0.4-6.5-1.1c-2.1-0.7-3.8-1.8-5.4-3.1c-1.5-1.4-2.8-3.1-3.6-5.1c-0.9-2-1.3-4.3-1.3-6.9
			c0-2.5,0.4-4.8,1.3-6.8s2-3.8,3.5-5.2s3.2-2.5,5.2-3.3c2-0.8,4.2-1.2,6.5-1.2c2.3,0,4.3,0.4,6.2,1.1c1.9,0.8,3.5,1.9,4.9,3.3
			c1.4,1.4,2.4,3.2,3.2,5.2C403.9,146.2,404.3,148.5,404.3,151.1z M395,147.3c0-1.6-0.5-3-1.5-4.1c-1-1.1-2.5-1.7-4.5-1.7
			c-1,0-1.9,0.2-2.7,0.5c-0.8,0.3-1.5,0.7-2.2,1.3c-0.6,0.5-1.1,1.2-1.5,1.9c-0.4,0.7-0.6,1.5-0.6,2.2H395z"/>
        <path d="M443,150.6c0,2.5-0.5,4.8-1.4,6.8c-0.9,2-2.1,3.8-3.7,5.2s-3.4,2.5-5.4,3.3s-4.2,1.2-6.6,1.2c-2.3,0-4.5-0.4-6.6-1.2
			c-2.1-0.8-3.9-1.9-5.4-3.3c-1.5-1.4-2.8-3.1-3.7-5.2c-0.9-2-1.4-4.3-1.4-6.8c0-2.5,0.5-4.8,1.4-6.8c0.9-2,2.1-3.7,3.7-5.1
			c1.5-1.4,3.3-2.5,5.4-3.2c2.1-0.7,4.3-1.1,6.6-1.1c2.3,0,4.5,0.4,6.6,1.1c2.1,0.7,3.9,1.8,5.4,3.2s2.8,3.1,3.7,5.1
			C442.6,145.9,443,148.1,443,150.6z M433.3,150.6c0-1-0.2-1.9-0.5-2.9c-0.3-0.9-0.8-1.8-1.4-2.5c-0.6-0.7-1.4-1.3-2.3-1.8
			c-0.9-0.5-1.9-0.7-3.1-0.7c-1.2,0-2.2,0.2-3.1,0.7c-0.9,0.5-1.7,1-2.2,1.8c-0.6,0.7-1,1.5-1.4,2.5c-0.3,0.9-0.5,1.9-0.5,2.9
			s0.2,2,0.5,2.9c0.3,0.9,0.8,1.8,1.4,2.6c0.6,0.8,1.4,1.4,2.3,1.8c0.9,0.5,1.9,0.7,3.1,0.7c1.2,0,2.2-0.2,3.1-0.7
			c0.9-0.5,1.7-1.1,2.3-1.8c0.6-0.8,1.1-1.6,1.4-2.6C433.2,152.6,433.3,151.6,433.3,150.6z"/>
        <path d="M479.9,151.1c0,0.4,0,0.8,0,1.2c0,0.4,0,0.8-0.1,1.2h-22.2c0.1,0.9,0.3,1.6,0.8,2.3c0.4,0.7,1,1.3,1.7,1.8
			c0.7,0.5,1.4,0.9,2.3,1.2c0.8,0.3,1.7,0.4,2.6,0.4c1.6,0,3-0.3,4.1-0.9c1.1-0.6,2-1.4,2.7-2.3l7,4.4c-1.4,2.1-3.3,3.7-5.7,4.8
			c-2.4,1.1-5.1,1.7-8.2,1.7c-2.3,0-4.5-0.4-6.5-1.1c-2.1-0.7-3.8-1.8-5.4-3.1c-1.5-1.4-2.8-3.1-3.6-5.1c-0.9-2-1.3-4.3-1.3-6.9
			c0-2.5,0.4-4.8,1.3-6.8c0.9-2,2-3.8,3.5-5.2s3.2-2.5,5.2-3.3c2-0.8,4.2-1.2,6.5-1.2c2.3,0,4.3,0.4,6.2,1.1
			c1.9,0.8,3.5,1.9,4.9,3.3c1.4,1.4,2.4,3.2,3.2,5.2C479.5,146.2,479.9,148.5,479.9,151.1z M470.6,147.3c0-1.6-0.5-3-1.5-4.1
			c-1-1.1-2.5-1.7-4.5-1.7c-1,0-1.9,0.2-2.7,0.5c-0.8,0.3-1.5,0.7-2.2,1.3c-0.6,0.5-1.1,1.2-1.5,1.9c-0.4,0.7-0.6,1.5-0.6,2.2H470.6
			z"/>
        <path d="M504.2,144.5c-0.8-0.8-1.8-1.4-2.9-2c-1.1-0.5-2.3-0.8-3.5-0.8c-0.9,0-1.8,0.2-2.6,0.6c-0.8,0.4-1.2,1-1.2,1.9
			c0,0.9,0.4,1.5,1.3,1.8c0.9,0.4,2.3,0.8,4.3,1.2c1.1,0.2,2.3,0.6,3.5,1s2.2,1,3.2,1.8c0.9,0.7,1.7,1.6,2.3,2.7s0.9,2.3,0.9,3.8
			c0,1.9-0.4,3.6-1.2,4.9c-0.8,1.3-1.8,2.4-3,3.2c-1.3,0.8-2.7,1.4-4.2,1.8c-1.6,0.4-3.1,0.6-4.7,0.6c-2.5,0-5-0.4-7.4-1.2
			c-2.4-0.8-4.4-2-6-3.5l5.7-6c0.9,1,2,1.8,3.3,2.5c1.3,0.7,2.7,1,4.2,1c0.8,0,1.6-0.2,2.4-0.6c0.8-0.4,1.2-1.1,1.2-2.1
			c0-0.9-0.5-1.6-1.5-2.1c-1-0.5-2.5-0.9-4.6-1.4c-1.1-0.2-2.1-0.6-3.2-1c-1.1-0.4-2-1-2.9-1.7c-0.8-0.7-1.5-1.6-2.1-2.6
			c-0.5-1-0.8-2.3-0.8-3.7c0-1.8,0.4-3.4,1.2-4.7c0.8-1.3,1.8-2.3,3-3.2c1.2-0.8,2.6-1.4,4.1-1.8c1.5-0.4,3-0.6,4.5-0.6
			c2.3,0,4.5,0.4,6.7,1.1c2.2,0.7,4.1,1.8,5.6,3.2L504.2,144.5z"/>
        <path d="M526.1,142.9v11.7c0,1.4,0.3,2.5,0.8,3.2c0.6,0.7,1.5,1.1,3,1.1c0.5,0,1,0,1.6-0.1c0.6-0.1,1-0.2,1.4-0.4l0.1,7.4
			c-0.7,0.2-1.6,0.5-2.6,0.6s-2.1,0.3-3.2,0.3c-2.1,0-3.8-0.3-5.2-0.8c-1.4-0.5-2.5-1.3-3.4-2.2c-0.8-1-1.4-2.1-1.8-3.5
			s-0.6-2.8-0.6-4.5v-13h-4.9v-7.5h4.9v-8.1h9.9v8.1h7.2v7.5H526.1z"/>
        <path d="M568.5,151.1c0,0.4,0,0.8,0,1.2c0,0.4,0,0.8-0.1,1.2h-22.2c0.1,0.9,0.3,1.6,0.8,2.3c0.4,0.7,1,1.3,1.7,1.8
			c0.7,0.5,1.4,0.9,2.3,1.2c0.8,0.3,1.7,0.4,2.6,0.4c1.6,0,3-0.3,4.1-0.9c1.1-0.6,2-1.4,2.7-2.3l7,4.4c-1.4,2.1-3.3,3.7-5.7,4.8
			c-2.4,1.1-5.1,1.7-8.2,1.7c-2.3,0-4.5-0.4-6.5-1.1c-2.1-0.7-3.8-1.8-5.4-3.1c-1.5-1.4-2.8-3.1-3.6-5.1c-0.9-2-1.3-4.3-1.3-6.9
			c0-2.5,0.4-4.8,1.3-6.8c0.9-2,2-3.8,3.5-5.2s3.2-2.5,5.2-3.3c2-0.8,4.2-1.2,6.5-1.2c2.3,0,4.3,0.4,6.2,1.1
			c1.9,0.8,3.5,1.9,4.9,3.3c1.4,1.4,2.4,3.2,3.2,5.2C568.1,146.2,568.5,148.5,568.5,151.1z M559.2,147.3c0-1.6-0.5-3-1.5-4.1
			c-1-1.1-2.5-1.7-4.5-1.7c-1,0-1.9,0.2-2.7,0.5c-0.8,0.3-1.5,0.7-2.2,1.3c-0.6,0.5-1.1,1.2-1.5,1.9c-0.4,0.7-0.6,1.5-0.6,2.2H559.2
			z"/>
        <path d="M594.7,143.7c-0.5-0.1-0.9-0.2-1.3-0.2c-0.4,0-0.9-0.1-1.3-0.1c-1.4,0-2.5,0.2-3.4,0.7s-1.7,1.1-2.2,1.8
			c-0.6,0.7-1,1.5-1.2,2.3c-0.2,0.8-0.4,1.5-0.4,2.1v15.7h-10.1v-30.6h9.7v4.4h0.1c0.8-1.6,1.9-2.9,3.3-3.8c1.4-1,3.1-1.5,5-1.5
			c0.4,0,0.8,0,1.2,0.1c0.4,0,0.7,0.1,1,0.2L594.7,143.7z"/>
        <path d="M619.1,143.7c-0.5-0.1-0.9-0.2-1.3-0.2c-0.4,0-0.9-0.1-1.3-0.1c-1.4,0-2.5,0.2-3.4,0.7s-1.7,1.1-2.2,1.8
			c-0.6,0.7-1,1.5-1.2,2.3c-0.2,0.8-0.4,1.5-0.4,2.1v15.7h-10.1v-30.6h9.7v4.4h0.1c0.8-1.6,1.9-2.9,3.3-3.8c1.4-1,3.1-1.5,5-1.5
			c0.4,0,0.8,0,1.2,0.1c0.4,0,0.7,0.1,1,0.2L619.1,143.7z"/>
        <path d="M652.8,151.1c0,0.4,0,0.8,0,1.2c0,0.4,0,0.8-0.1,1.2h-22.2c0.1,0.9,0.3,1.6,0.8,2.3c0.4,0.7,1,1.3,1.7,1.8
			c0.7,0.5,1.4,0.9,2.3,1.2c0.8,0.3,1.7,0.4,2.6,0.4c1.6,0,3-0.3,4.1-0.9c1.1-0.6,2-1.4,2.7-2.3l7,4.4c-1.4,2.1-3.3,3.7-5.7,4.8
			c-2.4,1.1-5.1,1.7-8.2,1.7c-2.3,0-4.5-0.4-6.5-1.1c-2.1-0.7-3.8-1.8-5.4-3.1c-1.5-1.4-2.8-3.1-3.6-5.1c-0.9-2-1.3-4.3-1.3-6.9
			c0-2.5,0.4-4.8,1.3-6.8c0.9-2,2-3.8,3.5-5.2s3.2-2.5,5.2-3.3c2-0.8,4.2-1.2,6.5-1.2c2.3,0,4.3,0.4,6.2,1.1
			c1.9,0.8,3.5,1.9,4.9,3.3c1.4,1.4,2.4,3.2,3.2,5.2C652.5,146.2,652.8,148.5,652.8,151.1z M643.6,147.3c0-1.6-0.5-3-1.5-4.1
			c-1-1.1-2.5-1.7-4.5-1.7c-1,0-1.9,0.2-2.7,0.5c-0.8,0.3-1.5,0.7-2.2,1.3c-0.6,0.5-1.1,1.2-1.5,1.9c-0.4,0.7-0.6,1.5-0.6,2.2H643.6
			z"/>
        <path d="M670.1,125.6c0,0.8-0.2,1.5-0.5,2.2c-0.3,0.7-0.7,1.3-1.2,1.8c-0.5,0.5-1.1,0.9-1.8,1.2c-0.7,0.3-1.5,0.4-2.2,0.4
			c-1.6,0-3-0.5-4.1-1.6c-1.1-1.1-1.7-2.4-1.7-3.9c0-0.7,0.1-1.4,0.4-2.1c0.3-0.7,0.7-1.3,1.2-1.8s1.1-0.9,1.8-1.2
			c0.7-0.3,1.5-0.5,2.3-0.5c0.8,0,1.5,0.1,2.2,0.4c0.7,0.3,1.3,0.7,1.8,1.2c0.5,0.5,0.9,1.1,1.2,1.8
			C669.9,124.1,670.1,124.9,670.1,125.6z M659.3,166.1v-30.7h10.1v30.7H659.3z"/>
        <path d="M698.5,145.3c-0.6-0.7-1.4-1.3-2.3-1.8c-1-0.5-2-0.7-3-0.7c-1.1,0-2,0.2-2.9,0.6c-0.9,0.4-1.6,1-2.2,1.7
			c-0.6,0.7-1.1,1.5-1.4,2.5c-0.3,0.9-0.5,2-0.5,3c0,1.1,0.2,2.1,0.5,3c0.3,0.9,0.8,1.8,1.4,2.5c0.6,0.7,1.4,1.3,2.3,1.7
			c0.9,0.4,1.9,0.6,3,0.6c1,0,2-0.2,3-0.6c1-0.4,1.8-1,2.4-1.7l5.6,6.8c-1.3,1.2-2.9,2.2-4.9,2.9s-4.1,1-6.4,1
			c-2.4,0-4.7-0.4-6.8-1.1c-2.1-0.7-3.9-1.8-5.5-3.2c-1.5-1.4-2.8-3.1-3.7-5.1c-0.9-2-1.3-4.3-1.3-6.8c0-2.5,0.4-4.8,1.3-6.8
			c0.9-2,2.1-3.7,3.7-5.1c1.5-1.4,3.4-2.5,5.5-3.3c2.1-0.8,4.3-1.1,6.7-1.1c1.1,0,2.2,0.1,3.3,0.3c1.1,0.2,2.1,0.5,3.1,0.8
			c1,0.3,1.9,0.8,2.8,1.3c0.8,0.5,1.6,1.1,2.2,1.7L698.5,145.3z"/>
        <path d="M728.5,166.1v-16.6c0-0.9-0.1-1.7-0.2-2.5s-0.4-1.5-0.7-2.1c-0.3-0.6-0.8-1.1-1.4-1.4c-0.6-0.3-1.3-0.5-2.2-0.5
			c-1.8,0-3.1,0.6-4.1,1.9c-0.9,1.3-1.4,2.8-1.4,4.6v16.6h-10.1v-46.5h10.1v19.8h0.1c0.7-1.2,1.8-2.3,3.3-3.3c1.5-1,3.3-1.4,5.5-1.4
			c2.1,0,3.8,0.4,5.3,1.1c1.4,0.7,2.6,1.7,3.4,2.9c0.9,1.2,1.5,2.5,1.9,4c0.4,1.5,0.6,3,0.6,4.6v19H728.5z"/>
        <path d="M757.8,160.7c0,1.7-0.6,3.2-1.8,4.3c-1.2,1.1-2.7,1.7-4.3,1.7c-0.9,0-1.7-0.2-2.4-0.5c-0.8-0.3-1.4-0.7-2-1.3
			c-0.6-0.5-1-1.2-1.4-1.9c-0.3-0.7-0.5-1.5-0.5-2.4c0-0.8,0.2-1.6,0.5-2.3c0.3-0.7,0.8-1.4,1.4-1.9c0.6-0.6,1.2-1,2-1.3
			c0.8-0.3,1.6-0.5,2.4-0.5c1.7,0,3.1,0.6,4.3,1.7C757.2,157.5,757.8,159,757.8,160.7z"/>
        <path d="M788,166.1v-4h-0.1c-1,1.6-2.4,2.8-4.2,3.6c-1.8,0.8-3.8,1.3-5.8,1.3c-2.3,0-4.4-0.5-6.2-1.4c-1.8-0.9-3.3-2.1-4.6-3.6
			c-1.3-1.5-2.2-3.2-2.9-5.2c-0.7-2-1-4-1-6.2c0-2.1,0.3-4.2,1-6.1c0.7-1.9,1.6-3.7,2.9-5.1c1.3-1.5,2.8-2.6,4.6-3.5
			c1.8-0.9,3.8-1.3,6-1.3c2.3,0,4.2,0.4,5.7,1.3c1.6,0.9,2.8,1.8,3.6,2.8h0.1v-19.1h10.1v46.5H788z M787.6,150.7
			c0-1-0.2-1.9-0.5-2.9c-0.3-0.9-0.8-1.8-1.5-2.5c-0.6-0.7-1.4-1.3-2.3-1.8c-0.9-0.5-1.9-0.7-3.1-0.7c-1.2,0-2.2,0.2-3.1,0.7
			c-0.9,0.5-1.7,1-2.3,1.8c-0.6,0.7-1.1,1.5-1.4,2.5c-0.3,0.9-0.5,1.9-0.5,2.9s0.2,2,0.5,2.9c0.3,1,0.8,1.8,1.4,2.6
			c0.6,0.7,1.4,1.3,2.3,1.8c0.9,0.5,1.9,0.7,3.1,0.7c1.1,0,2.2-0.2,3.1-0.7c0.9-0.5,1.7-1,2.3-1.8c0.6-0.7,1.1-1.6,1.5-2.5
			C787.4,152.7,787.6,151.7,787.6,150.7z"/>
        <path d="M835.7,151.1c0,0.4,0,0.8,0,1.2c0,0.4,0,0.8-0.1,1.2h-22.2c0.1,0.9,0.3,1.6,0.8,2.3c0.4,0.7,1,1.3,1.7,1.8
			c0.7,0.5,1.4,0.9,2.3,1.2c0.8,0.3,1.7,0.4,2.6,0.4c1.6,0,3-0.3,4.1-0.9c1.1-0.6,2-1.4,2.7-2.3l7,4.4c-1.4,2.1-3.3,3.7-5.7,4.8
			c-2.4,1.1-5.1,1.7-8.2,1.7c-2.3,0-4.5-0.4-6.5-1.1c-2.1-0.7-3.8-1.8-5.4-3.1c-1.5-1.4-2.8-3.1-3.6-5.1c-0.9-2-1.3-4.3-1.3-6.9
			c0-2.5,0.4-4.8,1.3-6.8c0.9-2,2-3.8,3.5-5.2s3.2-2.5,5.2-3.3c2-0.8,4.2-1.2,6.5-1.2c2.3,0,4.3,0.4,6.2,1.1
			c1.9,0.8,3.5,1.9,4.9,3.3c1.4,1.4,2.4,3.2,3.2,5.2C835.3,146.2,835.7,148.5,835.7,151.1z M826.4,147.3c0-1.6-0.5-3-1.5-4.1
			c-1-1.1-2.5-1.7-4.5-1.7c-1,0-1.9,0.2-2.7,0.5c-0.8,0.3-1.5,0.7-2.2,1.3c-0.6,0.5-1.1,1.2-1.5,1.9c-0.4,0.7-0.6,1.5-0.6,2.2H826.4
			z"/>
	</g>
</g>
    <g id="Capa_2_copia" class="st1">
	<text transform="matrix(1 0 0 1 151.3413 166.0947)" class="st2 st3 st4">Vignetteoesterreich.de</text>
</g>
</svg>
