<?xml version="1.0" encoding="utf-8"?>
<!-- Generator: Adobe Illustrator 16.0.3, SVG Export Plug-In . SVG Version: 6.00 Build 0)  -->
<!DOCTYPE svg PUBLIC "-//W3C//DTD SVG 1.1//EN" "http://www.w3.org/Graphics/SVG/1.1/DTD/svg11.dtd">
<svg version="1.1" id="Layer_1" xmlns="http://www.w3.org/2000/svg" xmlns:xlink="http://www.w3.org/1999/xlink" x="0px" y="0px"
	 width="187px" height="46px" viewBox="1614.864 1000.901 187 46" enable-background="new 1614.864 1000.901 187 46"
	 xml:space="preserve">
<g>
	<g>
		<path class="cls-1" d="M1653.894,1008.808h1.948l3.65,10.107h0.035l3.789-10.107h1.843l-4.896,12.422h-1.579L1653.894,1008.808z"/>
		<path class="cls-1" d="M1665.686,1009.931c0-0.316,0.114-0.588,0.342-0.817c0.228-0.227,0.5-0.342,0.815-0.342c0.317,0,0.588,0.115,0.816,0.342
			c0.229,0.229,0.342,0.5,0.342,0.817c0,0.315-0.113,0.588-0.342,0.815c-0.228,0.229-0.5,0.342-0.816,0.342
			c-0.315,0-0.587-0.113-0.815-0.342C1665.8,1010.519,1665.686,1010.247,1665.686,1009.931z M1666.055,1012.914h1.579v8.316h-1.579
			V1012.914z"/>
		<path class="cls-1" d="M1678.478,1021.161c0,0.632-0.108,1.208-0.325,1.728c-0.217,0.522-0.524,0.972-0.922,1.353
			c-0.397,0.379-0.877,0.676-1.438,0.887c-0.561,0.21-1.182,0.314-1.86,0.314c-0.796,0-1.523-0.11-2.185-0.334
			c-0.661-0.222-1.289-0.607-1.885-1.157l1.069-1.335c0.41,0.447,0.854,0.783,1.333,1.011c0.48,0.228,1.024,0.342,1.632,0.342
			c0.584,0,1.07-0.085,1.456-0.255c0.387-0.169,0.693-0.388,0.921-0.656c0.229-0.271,0.39-0.579,0.483-0.923
			c0.094-0.345,0.14-0.693,0.14-1.045v-1.227h-0.052c-0.304,0.504-0.717,0.874-1.237,1.114c-0.521,0.24-1.068,0.36-1.641,0.36
			c-0.608,0-1.173-0.108-1.693-0.325c-0.521-0.216-0.969-0.514-1.343-0.895c-0.374-0.38-0.667-0.83-0.877-1.351
			s-0.316-1.085-0.316-1.693c0-0.607,0.1-1.179,0.299-1.71c0.198-0.533,0.482-0.998,0.851-1.396c0.368-0.397,0.813-0.707,1.333-0.93
			c0.521-0.222,1.103-0.333,1.746-0.333c0.561,0,1.108,0.123,1.641,0.368c0.531,0.247,0.95,0.591,1.254,1.036h0.035v-1.193h1.58
			V1021.161z M1674.16,1014.177c-0.42,0-0.801,0.073-1.14,0.22c-0.34,0.146-0.626,0.345-0.86,0.597s-0.416,0.555-0.544,0.912
			c-0.127,0.357-0.192,0.746-0.192,1.167c0,0.843,0.245,1.518,0.736,2.027c0.492,0.509,1.158,0.763,2,0.763
			c0.843,0,1.51-0.254,2-0.763c0.492-0.509,0.737-1.184,0.737-2.027c0-0.421-0.064-0.81-0.192-1.167
			c-0.129-0.357-0.311-0.661-0.544-0.912s-0.521-0.451-0.859-0.597C1674.961,1014.25,1674.582,1014.177,1674.16,1014.177z"/>
		<path class="cls-1" d="M1680.863,1012.914h1.58v1.281h0.035c0.199-0.445,0.544-0.804,1.035-1.079c0.491-0.275,1.059-0.413,1.703-0.413
			c0.397,0,0.781,0.062,1.149,0.184c0.369,0.124,0.69,0.313,0.965,0.571c0.275,0.257,0.494,0.588,0.658,0.991
			c0.164,0.404,0.246,0.881,0.246,1.431v5.351h-1.579v-4.912c0-0.386-0.053-0.716-0.158-0.991c-0.106-0.274-0.246-0.498-0.422-0.667
			c-0.175-0.169-0.378-0.292-0.605-0.368c-0.229-0.076-0.465-0.115-0.711-0.115c-0.328,0-0.632,0.053-0.913,0.158
			c-0.28,0.106-0.526,0.272-0.736,0.501c-0.21,0.228-0.375,0.517-0.49,0.869c-0.118,0.35-0.176,0.766-0.176,1.245v4.28h-1.58
			V1012.914z"/>
		<path class="cls-1" d="M1691.813,1017.651c0,0.363,0.079,0.693,0.236,0.992c0.159,0.298,0.366,0.553,0.624,0.763
			c0.257,0.211,0.555,0.375,0.895,0.491c0.339,0.117,0.69,0.175,1.054,0.175c0.49,0,0.917-0.114,1.281-0.342
			c0.362-0.227,0.696-0.529,1-0.903l1.193,0.912c-0.877,1.135-2.105,1.702-3.685,1.702c-0.656,0-1.25-0.11-1.781-0.334
			c-0.532-0.222-0.982-0.527-1.352-0.92c-0.368-0.392-0.652-0.853-0.851-1.386c-0.198-0.531-0.297-1.108-0.297-1.728
			s0.107-1.195,0.324-1.729c0.217-0.531,0.516-0.993,0.896-1.386c0.38-0.392,0.833-0.698,1.36-0.921
			c0.527-0.222,1.1-0.333,1.719-0.333c0.737,0,1.36,0.129,1.869,0.386c0.509,0.258,0.927,0.594,1.255,1.009
			c0.327,0.415,0.564,0.884,0.711,1.404c0.146,0.521,0.219,1.05,0.219,1.588v0.562H1691.813z M1696.797,1016.389
			c-0.013-0.352-0.067-0.673-0.167-0.966c-0.1-0.292-0.25-0.546-0.448-0.763c-0.199-0.217-0.447-0.387-0.746-0.509
			c-0.297-0.123-0.646-0.185-1.044-0.185c-0.386,0-0.74,0.073-1.062,0.22c-0.321,0.146-0.594,0.336-0.815,0.57
			c-0.223,0.234-0.396,0.494-0.517,0.781c-0.124,0.287-0.185,0.57-0.185,0.852H1696.797z"/>
		<path class="cls-1" d="M1704.832,1014.283h-2.263v3.773c0,0.233,0.006,0.464,0.018,0.693c0.011,0.228,0.056,0.432,0.131,0.613
			c0.076,0.182,0.192,0.328,0.351,0.439s0.389,0.167,0.693,0.167c0.187,0,0.38-0.017,0.579-0.053c0.2-0.035,0.38-0.098,0.545-0.192
			v1.438c-0.188,0.105-0.431,0.18-0.729,0.218c-0.298,0.043-0.53,0.063-0.694,0.063c-0.607,0-1.079-0.083-1.413-0.254
			c-0.333-0.17-0.578-0.389-0.737-0.658c-0.157-0.269-0.251-0.57-0.28-0.903c-0.03-0.334-0.043-0.669-0.043-1.009v-4.334h-1.825
			v-1.369h1.825v-2.334h1.579v2.334h2.263V1014.283z"/>
		<path class="cls-1" d="M1706.464,1017.072c0-0.607,0.114-1.176,0.343-1.702c0.228-0.526,0.541-0.989,0.938-1.386s0.866-0.71,1.404-0.938
			c0.537-0.229,1.116-0.342,1.736-0.342c0.621,0,1.199,0.114,1.737,0.342c0.539,0.228,1.006,0.541,1.404,0.938
			c0.397,0.397,0.71,0.86,0.938,1.386c0.228,0.526,0.342,1.095,0.342,1.702c0,0.608-0.114,1.178-0.342,1.711
			c-0.228,0.532-0.541,0.995-0.938,1.386c-0.398,0.392-0.866,0.702-1.404,0.93c-0.538,0.229-1.117,0.342-1.737,0.342
			c-0.62,0-1.199-0.112-1.736-0.342c-0.539-0.228-1.007-0.538-1.404-0.93c-0.397-0.391-0.711-0.854-0.938-1.386
			C1706.578,1018.25,1706.464,1017.681,1706.464,1017.072z M1708.148,1017.072c0,0.421,0.064,0.811,0.194,1.167
			c0.127,0.356,0.31,0.661,0.543,0.912c0.235,0.253,0.521,0.451,0.86,0.598c0.339,0.146,0.72,0.219,1.141,0.219
			s0.802-0.073,1.141-0.219c0.34-0.147,0.626-0.344,0.86-0.598c0.234-0.251,0.415-0.555,0.544-0.912
			c0.129-0.356,0.193-0.746,0.193-1.167c0-0.421-0.064-0.81-0.193-1.167s-0.31-0.661-0.544-0.912
			c-0.234-0.251-0.52-0.451-0.86-0.597c-0.339-0.146-0.72-0.22-1.141-0.22s-0.801,0.073-1.141,0.22
			c-0.339,0.146-0.625,0.345-0.86,0.597c-0.233,0.251-0.416,0.555-0.543,0.912
			C1708.212,1016.262,1708.148,1016.651,1708.148,1017.072z"/>
		<path class="cls-1" d="M1716.887,1017.072c0-0.607,0.115-1.176,0.342-1.702c0.228-0.526,0.541-0.989,0.938-1.386
			c0.397-0.397,0.866-0.71,1.404-0.938c0.537-0.229,1.117-0.342,1.736-0.342c0.621,0,1.199,0.114,1.738,0.342
			c0.538,0.228,1.006,0.541,1.404,0.938c0.397,0.397,0.71,0.86,0.938,1.386c0.229,0.526,0.342,1.095,0.342,1.702
			c0,0.608-0.114,1.178-0.342,1.711c-0.228,0.532-0.542,0.995-0.938,1.386c-0.397,0.392-0.866,0.702-1.404,0.93
			c-0.539,0.229-1.118,0.342-1.738,0.342c-0.619,0-1.199-0.112-1.736-0.342c-0.539-0.228-1.007-0.538-1.404-0.93
			c-0.398-0.391-0.71-0.854-0.938-1.386C1717.001,1018.25,1716.887,1017.681,1716.887,1017.072z M1718.57,1017.072
			c0,0.421,0.064,0.811,0.194,1.167c0.129,0.356,0.31,0.661,0.544,0.912c0.234,0.253,0.521,0.451,0.86,0.598
			c0.338,0.146,0.719,0.219,1.139,0.219c0.422,0,0.802-0.073,1.142-0.219c0.338-0.147,0.625-0.344,0.858-0.598
			c0.235-0.251,0.416-0.555,0.544-0.912c0.129-0.356,0.194-0.746,0.194-1.167c0-0.421-0.064-0.81-0.194-1.167
			c-0.129-0.357-0.31-0.661-0.544-0.912c-0.233-0.251-0.521-0.451-0.858-0.597c-0.34-0.146-0.72-0.22-1.142-0.22
			c-0.42,0-0.801,0.073-1.139,0.22c-0.34,0.146-0.626,0.345-0.86,0.597c-0.234,0.251-0.416,0.555-0.544,0.912
			C1718.635,1016.262,1718.57,1016.651,1718.57,1017.072z"/>
		<path class="cls-1" d="M1732.134,1015.001c-0.187-0.233-0.418-0.43-0.692-0.588c-0.275-0.157-0.612-0.237-1.009-0.237
			c-0.375,0-0.7,0.08-0.974,0.237c-0.275,0.158-0.412,0.389-0.412,0.694c0,0.245,0.079,0.444,0.236,0.597
			c0.159,0.151,0.345,0.273,0.562,0.367s0.448,0.164,0.693,0.211c0.245,0.047,0.456,0.088,0.632,0.123
			c0.338,0.082,0.658,0.181,0.956,0.297c0.298,0.118,0.555,0.27,0.772,0.458c0.216,0.187,0.386,0.415,0.509,0.684
			c0.123,0.269,0.184,0.597,0.184,0.983c0,0.467-0.099,0.868-0.298,1.201c-0.199,0.333-0.456,0.605-0.771,0.816
			c-0.317,0.211-0.676,0.363-1.079,0.456c-0.404,0.096-0.811,0.141-1.22,0.141c-0.691,0-1.296-0.104-1.816-0.315
			c-0.52-0.21-0.986-0.597-1.396-1.158l1.193-0.982c0.257,0.257,0.545,0.486,0.86,0.684c0.316,0.199,0.701,0.298,1.158,0.298
			c0.198,0,0.4-0.021,0.605-0.062c0.205-0.041,0.386-0.105,0.544-0.192c0.157-0.088,0.286-0.199,0.386-0.333s0.149-0.29,0.149-0.465
			c0-0.234-0.073-0.427-0.22-0.579c-0.146-0.152-0.322-0.272-0.527-0.36c-0.205-0.087-0.421-0.158-0.649-0.211
			c-0.229-0.052-0.431-0.096-0.605-0.131c-0.34-0.082-0.661-0.176-0.965-0.281c-0.304-0.105-0.573-0.246-0.807-0.422
			c-0.235-0.175-0.422-0.396-0.563-0.666c-0.14-0.269-0.21-0.602-0.21-1c0-0.433,0.091-0.811,0.271-1.132
			c0.182-0.322,0.422-0.588,0.72-0.798c0.299-0.21,0.638-0.368,1.018-0.474c0.38-0.104,0.764-0.158,1.149-0.158
			c0.561,0,1.1,0.105,1.614,0.315c0.514,0.211,0.924,0.562,1.229,1.054L1732.134,1015.001z"/>
		<path class="cls-1" d="M1739.96,1014.283h-2.264v3.773c0,0.233,0.006,0.464,0.018,0.693c0.011,0.228,0.056,0.432,0.131,0.613
			c0.076,0.182,0.193,0.328,0.351,0.439c0.157,0.111,0.388,0.167,0.692,0.167c0.188,0,0.38-0.017,0.579-0.053
			c0.2-0.035,0.381-0.098,0.544-0.192v1.438c-0.187,0.105-0.429,0.18-0.728,0.218c-0.298,0.043-0.53,0.063-0.692,0.063
			c-0.609,0-1.08-0.083-1.413-0.254c-0.333-0.17-0.579-0.389-0.737-0.658c-0.158-0.269-0.251-0.57-0.281-0.903
			c-0.029-0.334-0.043-0.669-0.043-1.009v-4.334h-1.825v-1.369h1.825v-2.334h1.579v2.334h2.264V1014.283z"/>
		<path class="cls-1" d="M1743.188,1017.651c0,0.363,0.079,0.693,0.237,0.992c0.159,0.298,0.366,0.553,0.623,0.763
			c0.257,0.211,0.556,0.375,0.896,0.491c0.339,0.117,0.689,0.175,1.053,0.175c0.491,0,0.918-0.114,1.28-0.342
			c0.363-0.227,0.696-0.529,1-0.903l1.194,0.912c-0.877,1.135-2.106,1.702-3.685,1.702c-0.656,0-1.249-0.11-1.781-0.334
			c-0.532-0.222-0.983-0.527-1.352-0.92c-0.368-0.392-0.652-0.853-0.851-1.386c-0.199-0.531-0.297-1.108-0.297-1.728
			s0.107-1.195,0.324-1.729c0.216-0.531,0.515-0.993,0.895-1.386c0.381-0.392,0.834-0.698,1.36-0.921
			c0.526-0.222,1.1-0.333,1.72-0.333c0.736,0,1.359,0.129,1.868,0.386c0.509,0.258,0.927,0.594,1.254,1.009
			c0.328,0.415,0.565,0.884,0.711,1.404c0.146,0.521,0.219,1.05,0.219,1.588v0.562H1743.188z M1748.172,1016.389
			c-0.012-0.352-0.067-0.673-0.166-0.966c-0.1-0.292-0.25-0.546-0.447-0.763c-0.2-0.217-0.448-0.387-0.746-0.509
			c-0.299-0.123-0.647-0.185-1.044-0.185c-0.385,0-0.74,0.073-1.062,0.22c-0.321,0.146-0.593,0.336-0.815,0.57
			s-0.395,0.494-0.517,0.781c-0.124,0.287-0.185,0.57-0.185,0.852H1748.172z"/>
		<path class="cls-1" d="M1751.752,1012.914h1.579v1.281h0.036c0.199-0.445,0.543-0.804,1.036-1.079c0.49-0.275,1.058-0.413,1.701-0.413
			c0.397,0,0.781,0.062,1.149,0.184c0.368,0.124,0.69,0.313,0.964,0.571c0.275,0.257,0.495,0.588,0.659,0.991
			c0.164,0.404,0.246,0.881,0.246,1.431v5.351h-1.58v-4.912c0-0.386-0.052-0.716-0.158-0.991c-0.105-0.274-0.246-0.498-0.421-0.667
			c-0.175-0.169-0.377-0.292-0.605-0.368c-0.228-0.076-0.464-0.115-0.71-0.115c-0.328,0-0.631,0.053-0.913,0.158
			c-0.281,0.106-0.526,0.272-0.736,0.501c-0.211,0.228-0.375,0.517-0.492,0.869c-0.117,0.35-0.175,0.766-0.175,1.245v4.28h-1.579
			V1012.914z"/>
		<path class="cls-1" d="M1761.508,1012.914h1.579v1.281h0.035c0.106-0.223,0.246-0.424,0.421-0.606c0.176-0.181,0.372-0.335,0.588-0.464
			c0.216-0.129,0.453-0.231,0.711-0.308c0.257-0.076,0.514-0.114,0.772-0.114c0.256,0,0.491,0.035,0.702,0.105l-0.071,1.702
			c-0.128-0.035-0.257-0.064-0.386-0.087c-0.129-0.023-0.258-0.036-0.386-0.036c-0.772,0-1.363,0.217-1.772,0.649
			c-0.409,0.433-0.614,1.105-0.614,2.019v4.175h-1.579V1012.914z"/>
		<path class="cls-1" d="M1767.755,1009.931c0-0.316,0.113-0.588,0.341-0.817c0.228-0.227,0.5-0.342,0.816-0.342c0.316,0,0.588,0.115,0.816,0.342
			c0.227,0.229,0.342,0.5,0.342,0.817c0,0.315-0.115,0.588-0.342,0.815c-0.229,0.229-0.5,0.342-0.816,0.342
			c-0.315,0-0.588-0.113-0.816-0.342C1767.868,1010.519,1767.755,1010.247,1767.755,1009.931z M1768.123,1012.914h1.579v8.316
			h-1.579V1012.914z"/>
		<path class="cls-1" d="M1773.914,1012.914v9.511c0,0.211-0.016,0.489-0.044,0.835c-0.03,0.344-0.123,0.676-0.281,0.998
			c-0.158,0.323-0.41,0.601-0.754,0.834c-0.345,0.232-0.833,0.351-1.466,0.351c-0.175,0-0.348-0.012-0.518-0.034
			c-0.169-0.024-0.335-0.064-0.499-0.123l0.175-1.457c0.094,0.035,0.2,0.067,0.315,0.097c0.118,0.029,0.229,0.044,0.334,0.044
			c0.433,0,0.734-0.138,0.904-0.412c0.169-0.275,0.254-0.676,0.254-1.203v-9.439H1773.914z M1771.965,1009.931
			c0-0.316,0.114-0.588,0.343-0.817c0.228-0.227,0.5-0.342,0.815-0.342c0.316,0,0.588,0.115,0.816,0.342
			c0.228,0.229,0.342,0.5,0.342,0.817c0,0.315-0.114,0.588-0.342,0.815c-0.228,0.229-0.5,0.342-0.816,0.342
			c-0.315,0-0.587-0.113-0.815-0.342C1772.08,1010.519,1771.965,1010.247,1771.965,1009.931z"/>
		<path class="cls-1" d="M1776.422,1007.966h1.579v8.562l3.58-3.597h2.193l-3.877,3.772l4.211,4.527h-2.246l-3.861-4.315v4.315h-1.579V1007.966z"
			/>
		<path class="cls-1" d="M1786.775,1021.336c-0.317,0-0.588-0.114-0.816-0.343c-0.229-0.228-0.343-0.5-0.343-0.815s0.114-0.588,0.343-0.816
			c0.228-0.228,0.499-0.342,0.816-0.342c0.315,0,0.588,0.115,0.816,0.342c0.228,0.229,0.341,0.5,0.341,0.816
			s-0.114,0.588-0.341,0.815C1787.363,1021.222,1787.09,1021.336,1786.775,1021.336z"/>
		<path class="cls-1" d="M1790.406,1012.914h1.579v1.281h0.036c0.199-0.445,0.543-0.804,1.035-1.079c0.493-0.275,1.059-0.413,1.703-0.413
			c0.397,0,0.78,0.062,1.149,0.184c0.368,0.124,0.69,0.313,0.965,0.571c0.274,0.257,0.494,0.588,0.658,0.991
			c0.163,0.404,0.245,0.881,0.245,1.431v5.351h-1.579v-4.912c0-0.386-0.053-0.716-0.158-0.991c-0.104-0.274-0.245-0.498-0.421-0.667
			s-0.377-0.292-0.605-0.368c-0.229-0.076-0.465-0.115-0.71-0.115c-0.329,0-0.632,0.053-0.914,0.158
			c-0.28,0.106-0.526,0.272-0.737,0.501c-0.21,0.228-0.374,0.517-0.491,0.869c-0.117,0.35-0.176,0.766-0.176,1.245v4.28h-1.579
			V1012.914z"/>
		<path class="cls-1" d="M1800.285,1007.966h1.579v13.264h-1.579V1007.966z"/>
	</g>
</g>
<polygon class="cls-1" fill="#2EBA9D" points="1652.863,1025.036 1651.722,1019.688 1651.711,1019.688 1651.711,1019.685 1623.994,1019.6851623.994,1019.688 1623.878,1019.688 1622.698,1025.036 1627.662,1025.036 1628.343,1021.947 1647.391,1021.947 1648.053,1025.036"/>
<polygon class="cls-1" fill="#2EBA9D" points="1628.372,1039.721 1637.02,1039.721 1637.02,1023.47 1631.353,1023.472 "/>
<polygon class="cls-1" fill="#2EBA9D" points="1640.555,1008.93 1638.395,1008.93 1638.395,1018.166 1643.232,1018.168 "/>
<polygon class="cls-1" fill="#2EBA9D" points="1638.395,1023.47 1638.395,1039.721 1647.042,1039.721 1644.061,1023.472 "/>
<polyline class="cls-1" fill="#2EBA9D" points="1632.182,1018.168 1634.856,1008.93 1637.02,1008.93 1637.02,1018.166 "/>
<path class="cls-1" fill="#2EBA9D" d="M1660.76,1006.825c-0.664-3.455-3.685-5.956-7.203-5.958h-31.358c-4.049,0.004-7.331,3.286-7.335,7.334
	v31.359c0.004,4.047,3.286,7.329,7.335,7.333h31.358c4.046-0.004,7.327-3.282,7.335-7.33v-16.451
	c-0.49,0.069-0.983,0.105-1.477,0.105c-0.336,0-0.664-0.02-0.992-0.048v16.391c-0.002,2.685-2.18,4.862-4.866,4.864h-31.358
	c-2.688-0.002-4.863-2.18-4.867-4.864v-31.359c0.003-2.688,2.179-4.864,4.867-4.867h31.358c2.149,0.003,4.043,1.415,4.662,3.475
	c0.396-0.046,0.796-0.068,1.196-0.069C1659.864,1006.74,1660.314,1006.768,1660.76,1006.825z"/>
<g transform="matrix(.83517 0 0 .83517 -.22538 -.35912)">
	<path class="cls-1" fill="#D40E14" d="M2123.907,1163.844c0.052-0.041,0.092-0.093,0.12-0.153c0.029-0.082,0.042-0.168,0.037-0.254v-8.328
		c0.005-0.089-0.01-0.177-0.037-0.259c-0.026-0.058-0.067-0.108-0.12-0.145c-0.125-0.097-0.419-0.144-0.878-0.144
		c-0.458,0-0.755,0.048-0.892,0.144c-0.05,0.037-0.092,0.087-0.119,0.145c-0.027,0.083-0.037,0.171-0.03,0.259v8.333
		c-0.016,0.15,0.038,0.298,0.144,0.403c0.127,0.096,0.423,0.145,0.893,0.145C2123.493,1163.991,2123.786,1163.943,2123.907,1163.844
		z M2117.693,1163.891c0.433-0.141,0.833-0.374,1.167-0.682c0.304-0.281,0.538-0.632,0.681-1.023
		c0.148-0.416,0.22-0.855,0.216-1.296v-5.781c0.018-0.152-0.035-0.303-0.146-0.409c-0.135-0.096-0.43-0.144-0.876-0.144
		c-0.45,0-0.746,0.049-0.893,0.144c-0.054,0.035-0.095,0.087-0.121,0.146c-0.031,0.083-0.047,0.173-0.047,0.263v5.756
		c-0.001,0.238-0.042,0.475-0.119,0.7c-0.094,0.254-0.28,0.467-0.52,0.592c-0.328,0.171-0.696,0.25-1.064,0.233
		c-0.262,0.006-0.527-0.031-0.778-0.109c-0.198-0.063-0.379-0.169-0.529-0.311c-0.139-0.135-0.241-0.301-0.303-0.486
		c-0.066-0.201-0.097-0.412-0.095-0.623v-5.754c0.018-0.152-0.036-0.303-0.146-0.409c-0.136-0.096-0.429-0.144-0.877-0.144
		c-0.448,0-0.746,0.049-0.892,0.144c-0.054,0.035-0.095,0.087-0.122,0.146c-0.025,0.084-0.034,0.174-0.028,0.263v5.779
		c-0.003,0.441,0.07,0.879,0.215,1.296c0.14,0.393,0.37,0.745,0.672,1.032c0.337,0.305,0.734,0.534,1.168,0.673
		c1.12,0.326,2.31,0.326,3.43,0L2117.693,1163.891z M2107.511,1163.844c0.05-0.041,0.09-0.093,0.115-0.153
		c0.027-0.082,0.04-0.168,0.036-0.254v-7.109h2.077c0.125,0.004,0.251-0.011,0.372-0.043c0.098-0.033,0.178-0.102,0.222-0.195
		c0.075-0.162,0.125-0.334,0.146-0.511c0.028-0.172,0.046-0.348,0.05-0.522c0.005-0.085-0.005-0.17-0.027-0.251
		c-0.018-0.06-0.057-0.111-0.109-0.145c-0.046-0.025-0.095-0.043-0.146-0.052c-0.09-0.013-0.181-0.018-0.272-0.015h-6.468
		c-0.127-0.004-0.251,0.01-0.374,0.044c-0.101,0.03-0.187,0.1-0.233,0.193c-0.073,0.14-0.122,0.292-0.146,0.449
		c-0.034,0.189-0.051,0.382-0.051,0.575c0,0.088,0.015,0.175,0.042,0.26c0.017,0.061,0.058,0.113,0.113,0.144
		c0.13,0.057,0.274,0.081,0.416,0.068h2.313v7.104c-0.021,0.154,0.039,0.307,0.154,0.41c0.127,0.095,0.425,0.145,0.892,0.145
		c0.469,0,0.762-0.049,0.875-0.141L2107.511,1163.844z"/>
	<path class="cls-1" fill="#D40E14" d="M2069.61,1149.498h7.28c0.719,0,1.25,0.234,1.461,1.24c0.234,1.127,0.145,1.911-1.13,2l-2.287,0.164
		c1.685,10.621,11.512,14.085,16.864,2.64c0.887-1.893,1.167-2.238,2.146-1.998c1.314,0.327,1.494,1.009,0.863,2.91
		c-4.619,14.109-20.169,15.522-23.221-3.311l-1.85,0.133c-1.51,0.108-1.571-1.168-1.571-1.867
		C2068.16,1150,2068.681,1149.498,2069.61,1149.498z"/>
	<circle class="cls-1" fill="#D40E14" cx="2096.066" cy="1145.378" r="2.698"/>
</g>
</svg>
